<svg width="24" height="24" viewBox="0 0 24 24" fill="none" xmlns="http://www.w3.org/2000/svg">
<path d="M13.3647 6.89523C14.0717 7.03317 14.7214 7.37892 15.2307 7.88825C15.7401 8.39758 16.0858 9.04731 16.2238 9.75428M13.3647 4C14.8335 4.16317 16.2032 4.82092 17.2488 5.86526C18.2945 6.90959 18.954 8.27844 19.119 9.74704M18.3952 15.523V17.6945C18.396 17.896 18.3547 18.0956 18.274 18.2803C18.1932 18.465 18.0748 18.6308 17.9262 18.767C17.7777 18.9033 17.6023 19.0071 17.4113 19.0716C17.2204 19.1362 17.018 19.1602 16.8173 19.1421C14.59 18.9001 12.4505 18.139 10.5708 16.92C8.82197 15.8087 7.33925 14.326 6.22797 12.5771C5.00471 10.6889 4.24346 8.539 4.00587 6.30171C3.98779 6.10155 4.01157 5.89982 4.07572 5.70936C4.13987 5.5189 4.24297 5.34389 4.37847 5.19546C4.51396 5.04703 4.67888 4.92844 4.86271 4.84723C5.04655 4.76603 5.24528 4.724 5.44625 4.72381H7.61768C7.96895 4.72035 8.30949 4.84474 8.57583 5.07379C8.84217 5.30285 9.01613 5.62093 9.06529 5.96876C9.15694 6.66366 9.32691 7.34597 9.57196 8.00266C9.66934 8.26173 9.69042 8.54328 9.63269 8.81396C9.57496 9.08464 9.44085 9.3331 9.24625 9.5299L8.32701 10.4491C9.35739 12.2612 10.8578 13.7616 12.6699 14.792L13.5891 13.8727C13.7859 13.6781 14.0343 13.544 14.305 13.4863C14.5757 13.4286 14.8573 13.4496 15.1163 13.547C15.773 13.7921 16.4553 13.962 17.1502 14.0537C17.5018 14.1033 17.8229 14.2804 18.0525 14.5513C18.282 14.8222 18.404 15.1681 18.3952 15.523Z" stroke="#5044EB" stroke-width="1.5" stroke-linecap="round" stroke-linejoin="round"/>
</svg>
